<?xml version="1.0" standalone="no"?>
<!DOCTYPE svg PUBLIC "-//W3C//DTD SVG 20010904//EN"
 "http://www.w3.org/TR/2001/REC-SVG-20010904/DTD/svg10.dtd">
<svg version="1.0" xmlns="http://www.w3.org/2000/svg"
 width="1130.000000pt" height="1130.000000pt" viewBox="0 0 1130.000000 1130.000000"
 preserveAspectRatio="xMidYMid meet">
<metadata>
Created by potrace 1.11, written by Peter Selinger 2001-2013
</metadata>
<g transform="translate(0.000000,1130.000000) scale(0.100000,-0.100000)"
fill="#000000" stroke="none">
<path d="M5340 9174 c-1231 -112 -2296 -793 -2911 -1859 -253 -441 -423 -980
-469 -1495 -13 -148 -13 -532 0 -680 107 -1198 799 -2272 1855 -2880 442 -255
979 -424 1495 -470 148 -13 532 -13 680 0 1672 150 3041 1423 3314 3083 36
215 46 350 46 607 0 257 -10 392 -46 607 -169 1025 -748 1915 -1624 2492 -465
307 -968 493 -1551 577 -110 15 -673 28 -789 18z m700 -479 c633 -80 1207
-330 1690 -736 560 -471 946 -1116 1090 -1819 51 -252 64 -379 64 -660 0 -281
-13 -408 -64 -660 -144 -703 -530 -1348 -1090 -1819 -485 -407 -1047 -652
-1695 -738 -180 -23 -590 -23 -770 0 -756 100 -1406 422 -1926 953 -508 520
-809 1144 -905 1879 -24 180 -24 590 0 770 99 756 421 1407 952 1926 564 550
1250 858 2059 923 103 8 474 -4 595 -19z"/>
<path d="M7291 7988 c-25 -13 -54 -36 -65 -51 -21 -28 -21 -39 -24 -790 -3
-680 4 -1043 24 -1362 l7 -100 -109 105 c-205 198 -279 250 -359 250 -154 0
-245 -192 -150 -316 14 -18 60 -57 104 -88 91 -63 222 -172 330 -273 l74 -69
-110 -144 c-243 -320 -459 -684 -500 -843 -46 -179 27 -336 186 -399 50 -20
79 -22 279 -26 l222 -4 0 -401 c0 -386 1 -403 20 -435 61 -100 310 -103 377
-4 17 25 18 59 21 434 l3 407 299 3 c283 3 300 4 327 24 46 33 68 89 68 169
-1 54 -6 79 -24 111 -41 73 1 68 -677 74 -584 5 -613 6 -633 24 -32 29 -26 56
34 173 235 454 764 1040 1265 1401 173 125 190 145 190 235 0 78 -40 152 -105
192 -40 25 -59 30 -109 29 -39 0 -73 -7 -96 -19 -69 -36 -321 -248 -474 -398
l-96 -94 5 36 c18 130 25 461 25 1209 0 946 4 889 -67 933 -30 19 -55 24 -128
27 -79 3 -95 1 -134 -20z"/>
<path d="M3743 7845 c-132 -29 -225 -109 -260 -223 -17 -52 -18 -126 -18 -922
0 -815 1 -868 19 -920 48 -143 150 -211 345 -230 125 -12 2147 -12 2272 0 123
12 200 41 260 97 55 51 84 113 99 209 7 46 10 342 8 889 -3 739 -5 825 -20
870 -39 115 -108 183 -223 223 -46 16 -146 17 -1235 19 -971 1 -1196 -1 -1247
-12z m1067 -675 l0 -330 -475 0 -475 0 0 284 c0 181 4 294 11 315 21 60 20 60
502 61 l437 0 0 -330z m1204 320 c14 -5 33 -21 43 -37 16 -24 18 -58 21 -320
l3 -293 -445 0 -446 0 0 330 0 330 399 0 c230 0 410 -4 425 -10z m-1204 -1295
l0 -305 -417 0 c-248 0 -433 4 -454 10 -74 21 -74 19 -77 326 l-3 274 476 0
475 0 0 -305z m1268 41 c-3 -250 -4 -266 -24 -293 -37 -49 -58 -52 -476 -52
l-388 -1 0 305 0 305 445 0 446 0 -3 -264z"/>
<path d="M3965 5184 c-75 -18 -134 -53 -179 -105 -68 -80 -70 -93 -74 -494 -4
-375 2 -443 39 -516 38 -75 111 -128 219 -158 47 -13 187 -15 945 -19 604 -2
920 0 984 8 168 19 262 81 312 206 24 59 24 62 24 439 0 341 -2 385 -18 432
-39 112 -117 180 -238 207 -98 23 -1921 22 -2014 0z m1824 -349 c16 -8 34 -28
40 -46 15 -43 15 -435 0 -478 -24 -68 8 -66 -809 -69 -404 -2 -759 0 -788 3
-34 4 -62 15 -80 30 l-27 23 -3 233 c-2 128 0 244 3 256 3 13 20 32 38 43 31
19 54 20 815 20 669 0 787 -2 811 -15z"/>
<path d="M3438 3503 c-46 -29 -72 -89 -73 -168 0 -78 19 -122 68 -159 l28 -21
1484 0 c1483 0 1484 0 1512 21 92 67 88 271 -7 327 -26 16 -147 17 -1507 17
-1358 -1 -1480 -2 -1505 -17z"/>
</g>
</svg>
