<?xml version="1.0" ?><svg id="Icons" viewBox="0 0 60 60" xmlns="http://www.w3.org/2000/svg"><path d="M39.658,45.326,35,44.211V40.789c.234-.2.472-.406.721-.622.8-.7,1.7-1.484,2.882-2.369a8.967,8.967,0,0,0,3.024-5.191,4.525,4.525,0,0,0,2.361-3.925,48.968,48.968,0,0,0,.993-8.028A10.838,10.838,0,0,0,42,12.513a11.093,11.093,0,0,0-5.189-3.105,7,7,0,0,0-13.628,0A11.093,11.093,0,0,0,18,12.513a10.838,10.838,0,0,0-2.978,8.141,48.968,48.968,0,0,0,.993,8.028,4.525,4.525,0,0,0,2.361,3.925A8.973,8.973,0,0,0,21.4,37.8c1.176.883,2.08,1.671,2.879,2.367.249.216.487.424.721.622v3.422l-4.668,1.118A10.982,10.982,0,0,0,12,56v1a3,3,0,0,0,3,3H45a3,3,0,0,0,3-3V56A10.986,10.986,0,0,0,39.658,45.326ZM30,6a4.993,4.993,0,0,1,4.578,3.038c-.253-.017-.5-.038-.76-.038H26.182c-.256,0-.507.021-.76.038A4.993,4.993,0,0,1,30,6ZM19.451,13.886A9.158,9.158,0,0,1,26.182,11h7.636a9.158,9.158,0,0,1,6.731,2.886,8.86,8.86,0,0,1,2.436,6.653c-.106,1.829-.259,3.339-.412,4.529a3.963,3.963,0,0,0-.6-.478A7.216,7.216,0,0,0,34.79,18a5.822,5.822,0,0,1-4.083-1.707,1,1,0,0,0-1.414,0A5.822,5.822,0,0,1,25.21,18a7.216,7.216,0,0,0-7.184,6.59,3.963,3.963,0,0,0-.6.478c-.153-1.19-.306-2.7-.412-4.529A8.86,8.86,0,0,1,19.451,13.886ZM22.6,36.2a7.586,7.586,0,0,1-2.381-4.513,1,1,0,0,0-.693-.766,2.7,2.7,0,0,1-.156-4.785A1,1,0,0,0,20,25.21,5.214,5.214,0,0,1,25.21,20,7.822,7.822,0,0,0,30,18.333,7.822,7.822,0,0,0,34.79,20,5.214,5.214,0,0,1,40,25.21a1,1,0,0,0,.627.928,2.7,2.7,0,0,1-.156,4.785,1,1,0,0,0-.693.766A7.587,7.587,0,0,1,37.4,36.2c-1.235.926-2.17,1.74-2.994,2.459C32.618,40.218,31.721,41,30,41s-2.618-.782-4.406-2.341C24.77,37.94,23.835,37.126,22.6,36.2ZM30,43a5.95,5.95,0,0,0,3-.761v2.61a3.168,3.168,0,0,1-6,0V42.239A5.95,5.95,0,0,0,30,43ZM46,57a1,1,0,0,1-1,1H41V56a1,1,0,0,0-2,0v2H21V56a1,1,0,0,0-2,0v2H15a1,1,0,0,1-1-1V56a8.983,8.983,0,0,1,6.807-8.729l4.592-1.1a5.157,5.157,0,0,0,9.2,0l4.583,1.1A8.985,8.985,0,0,1,46,56Z"/><path d="M26.549,36.889a1,1,0,0,0,1.343-.436A2.723,2.723,0,0,1,30,35a2.722,2.722,0,0,1,2.108,1.452,1,1,0,0,0,1.787-.9A4.693,4.693,0,0,0,30,33a4.693,4.693,0,0,0-3.895,2.553A1,1,0,0,0,26.549,36.889Z"/><path d="M26,27a1,1,0,0,0-.553-.895l-2-1a1,1,0,0,0-.894,1.79l.211.105-.211.105a1,1,0,0,0,.894,1.79l2-1A1,1,0,0,0,26,27Z"/><path d="M34.553,27.9l2,1a1,1,0,1,0,.894-1.79L37.236,27l.211-.105a1,1,0,1,0-.894-1.79l-2,1a1,1,0,0,0,0,1.79Z"/><path d="M29.22,31H30a1,1,0,0,0,0-2l-.8.065.761-2.8a1,1,0,1,0-1.93-.524l-.776,2.869A2,2,0,0,0,29.22,31Z"/><path d="M45.219,11.625a1,1,0,0,0,1.406.156L50.4,8.758a2,2,0,0,0-.354-3.352l-1.362-.68,3.019-3.019A1,1,0,0,0,50.293.293L47.274,3.312a2,2,0,0,0,.52,3.2l1.36.68-3.779,3.024A1,1,0,0,0,45.219,11.625Z"/><path d="M56.92,15.172a2,2,0,0,0-.433-1.872l-1.012-1.136L59.4,10.477A1,1,0,0,0,58.6,8.639l-3.921,1.689a2,2,0,0,0-.7,3.168l1.013,1.136-4.629,1.412A1,1,0,0,0,50.657,18a.985.985,0,0,0,.292-.044l4.629-1.412A1.99,1.99,0,0,0,56.92,15.172Z"/><path d="M13.286,5.047a2,2,0,0,0-.56-1.735L9.707.293A1,1,0,0,0,8.293,1.707l3.019,3.019-1.362.68A2,2,0,0,0,9.6,8.758l3.779,3.023a1,1,0,1,0,1.25-1.562L10.845,7.2l1.36-.68A2,2,0,0,0,13.286,5.047Z"/><path d="M9.635,16.044l-4.63-1.412L6.019,13.5a2,2,0,0,0-.7-3.168L1.4,8.639A1,1,0,0,0,.6,10.477l3.922,1.687L3.512,13.3a2,2,0,0,0,.91,3.243l4.629,1.412A.985.985,0,0,0,9.343,18a1,1,0,0,0,.292-1.956Z"/><path d="M18.143,6.515a1,1,0,0,0,1.714-1.03l-3-5a1,1,0,1,0-1.714,1.03Z"/><path d="M7,20H1a1,1,0,0,0,0,2H7a1,1,0,0,0,0-2Z"/><path d="M3.293,4.707A1,1,0,0,0,4.707,3.293l-3-3A1,1,0,0,0,.293,1.707Z"/><path d="M41,7a1,1,0,0,0,.858-.485l3-5A1,1,0,0,0,43.143.485l-3,5A1,1,0,0,0,41,7Z"/><path d="M59,20H53a1,1,0,0,0,0,2h6a1,1,0,0,0,0-2Z"/><path d="M58.293.293l-3,3a1,1,0,1,0,1.414,1.414l3-3A1,1,0,0,0,58.293.293Z"/></svg>