<?xml version="1.0" ?><svg id="Layer_1" style="enable-background:new 0 0 64 64;" version="1.1" viewBox="0 0 64 64" xml:space="preserve" xmlns="http://www.w3.org/2000/svg" xmlns:xlink="http://www.w3.org/1999/xlink"><style type="text/css">
	.st0{fill:none;stroke:#000000;stroke-width:2;stroke-linejoin:round;stroke-miterlimit:10;}
</style><path d="M41.5,26c-1.654,0-3-1.346-3-3h-2c0,2.757,2.243,5,5,5s5-2.243,5-5h-2C44.5,24.654,43.154,26,41.5,26z"/><path d="M22.5,26c-1.654,0-3-1.346-3-3h-2c0,2.757,2.243,5,5,5s5-2.243,5-5h-2C25.5,24.654,24.154,26,22.5,26z"/><path d="M37,37c-2.757,0-5,2.243-5,5s2.243,5,5,5s5-2.243,5-5S39.757,37,37,37z M37,45c-1.654,0-3-1.346-3-3s1.346-3,3-3  s3,1.346,3,3S38.654,45,37,45z"/><path d="M38.293,16.293c-0.286,0.286-0.372,0.716-0.217,1.09C38.23,17.756,38.596,18,39,18h7v-2h-4.586l4.293-4.293  c0.286-0.286,0.372-0.716,0.217-1.09C45.77,10.244,45.404,10,45,10h-7v2h4.586L38.293,16.293z"/><path d="M59,18v-2h-6.37l7.034-6.252c0.311-0.276,0.418-0.715,0.271-1.103S59.415,8,59,8h-9v2h6.37l-3.623,3.221  C47.449,7.352,39.95,4,32,4C16.561,4,4,16.561,4,32s12.561,28,28,28s28-12.561,28-28c0-4.949-1.299-9.75-3.759-14H59z M58,32  c0,14.336-11.663,26-26,26S6,46.336,6,32S17.663,6,32,6c7.376,0,14.335,3.108,19.252,8.549l-1.916,1.703  c-0.311,0.276-0.418,0.715-0.271,1.103S49.585,18,50,18h3.893C56.574,22.185,58,27.009,58,32z"/><path d="M35,16h-3.149l2.774-2.219c0.331-0.265,0.459-0.711,0.318-1.112S34.425,12,34,12h-6v2h3.149l-2.774,2.219  c-0.331,0.265-0.459,0.711-0.318,1.112S28.575,18,29,18h6V16z"/></svg>