<?xml version="1.0" ?><svg viewBox="0 0 512 512" xmlns="http://www.w3.org/2000/svg"><title/><g id="recovery"><path d="M398.4258,225.3657a4,4,0,0,1-3.8887-3.0625,142.591,142.591,0,0,0-6.9707-21.3477,4,4,0,0,1,2.1543-5.2305l20.3086-8.46a4,4,0,0,1,5.2305,2.1543,172.77,172.77,0,0,1,8.4414,25.8525,4.0011,4.0011,0,0,1-2.9512,4.8262l-21.3867,5.1562A3.9945,3.9945,0,0,1,398.4258,225.3657ZM396.44,201.5922a150.6941,150.6941,0,0,1,4.8847,14.96l13.6143-3.2822a164.9221,164.9221,0,0,0-5.57-17.063Zm-15.7041-18.7236a3.996,3.996,0,0,1-3.4092-1.9024,144.42,144.42,0,0,0-13.2539-18.16,4.0006,4.0006,0,0,1,.4336-5.64l16.7031-14.3178a4,4,0,0,1,5.6406.4341,174.4938,174.4938,0,0,1,16.0176,21.9458,4,4,0,0,1-1.3067,5.5039l-18.73,11.541A3.98,3.98,0,0,1,380.7354,182.8686Zm-8.0264-22.1968a152.7239,152.7239,0,0,1,9.2842,12.7207l11.9228-7.3467a166.49,166.49,0,0,0-10.5742-14.4882Zm-21.9678-12.79a3.9821,3.9821,0,0,1-2.5928-.9561,144.2522,144.2522,0,0,0-18.1982-13.208,3.9986,3.9986,0,0,1-1.3223-5.5l11.49-18.7617a4,4,0,0,1,5.5-1.3223,174.4159,174.4159,0,0,1,21.9931,15.9629,4,4,0,0,1,.4492,5.6392l-14.2734,16.7412A3.9919,3.9919,0,0,1,350.7412,147.8813Zm-13.2295-18.8521a152.5963,152.5963,0,0,1,12.7481,9.2535l9.0859-10.6568a166.7026,166.7026,0,0,0-14.52-10.54Zm-26.0586-5.2011a3.9956,3.9956,0,0,1-1.5273-.3033,142.6561,142.6561,0,0,0-21.3779-6.913,4.0007,4.0007,0,0,1-2.9659-4.8174l5.0938-21.4024a3.9991,3.9991,0,0,1,4.8174-2.9648,172.7545,172.7545,0,0,1,25.8877,8.3711,4,4,0,0,1,2.17,5.2241l-8.4,20.333a4,4,0,0,1-3.6973,2.4727Zm-17.1748-14.0205a150.8733,150.8733,0,0,1,14.9844,4.8457L314.61,101.71a165.03,165.03,0,0,0-17.0889-5.5264Z"/><path d="M298.0859,352.3129H212.3984a4,4,0,0,1-4-4V302.8437h-45.47a4,4,0,0,1-4-4v-85.687a4,4,0,0,1,4-4h45.47v-45.47a4,4,0,0,1,4-4h85.6875a4,4,0,0,1,4,4v45.47h45.47a4,4,0,0,1,4,4v85.687a4,4,0,0,1-4,4h-45.47v45.4692A4,4,0,0,1,298.0859,352.3129Zm-81.6875-8h77.6875V298.8437a4,4,0,0,1,4-4h45.47v-77.687h-45.47a4,4,0,0,1-4-4v-45.47H216.3984v45.47a4,4,0,0,1-4,4h-45.47v77.687h45.47a4,4,0,0,1,4,4Z"/><path d="M255.2417,427.7763c-94.7178,0-171.7764-77.0586-171.7764-171.7764S160.5239,84.2241,255.2417,84.2241a4,4,0,0,1,4.0005,4v19a4,4,0,0,1-4.0005,4c-79.83,0-144.7764,64.9462-144.7764,144.7758s64.9463,144.7764,144.7764,144.7764a145.2748,145.2748,0,0,0,140.7993-111.01H388.94a10.669,10.669,0,0,1-8.4678-17.1592l22.2119-28.9527a10.6694,10.6694,0,0,1,16.95.0254l22.1894,28.9239.003.0034a10.6685,10.6685,0,0,1-8.4678,17.1592h-9.6748a172.0651,172.0651,0,0,1-168.4419,138.01Zm-4-335.5039C162.7788,94.4067,91.4653,167.0331,91.4653,256c0,90.3067,73.47,163.7764,163.7764,163.7764A164.0543,164.0543,0,0,0,416.4355,285.0585a3.9987,3.9987,0,0,1,3.9366-3.2924h12.9863a2.6684,2.6684,0,0,0,2.1182-4.292l3.1748-2.4336-3.1758,2.4321L413.2783,248.539a2.6685,2.6685,0,0,0-4.2392-.0254L386.82,277.475a2.6692,2.6692,0,0,0,2.1192,4.2911h12.0849a4,4,0,0,1,3.919,4.7993c-14.4366,70.8139-77.3955,122.2109-149.7017,122.2109-84.2412,0-152.7764-68.5352-152.7764-152.7764,0-82.9043,66.3755-150.5966,148.7764-152.7241Z"/></g></svg>