<?xml version="1.0" ?><svg enable-background="new 0 0 24 24" id="Layer_1" version="1.1" viewBox="0 0 24 24" xml:space="preserve" xmlns="http://www.w3.org/2000/svg" xmlns:xlink="http://www.w3.org/1999/xlink"><g><path d="M12,0C5.3828125,0,0,5.3828125,0,12s5.3828125,12,12,12s12-5.3828125,12-12S18.6171875,0,12,0z" fill="#303C42"/><path d="M12,23C5.9345703,23,1,18.0654297,1,12S5.9345703,1,12,1s11,4.9345703,11,11S18.0654297,23,12,23z" fill="#FED600"/><path d="M19.2507324,3.7492676C20.9562378,5.687561,22,8.2213745,22,11   c0,6.0654297-4.9345703,11-11,11c-2.7786255,0-5.312439-1.0437622-7.2507324-2.7492676C5.7666626,21.543457,8.7131958,23,12,23   c6.0654297,0,11-4.9345703,11-11C23,8.7131958,21.543457,5.7666626,19.2507324,3.7492676z" fill="#010101" opacity="0.1"/><path d="M19.5,16h-0.6914063l-0.8613281-1.7236328c-0.0800781-0.1591797-0.2382813-0.2646484-0.4160156-0.2753906   c-0.1777344-0.0097656-0.3486328,0.0732422-0.4472656,0.2216797l-1.7226563,2.5839844l-2.5839844-1.7226563   c-0.1503906-0.0996094-0.3417969-0.1113281-0.5009766-0.03125L10.3818359,16H8.7070313l-1.8535156-1.8535156   c-0.1953125-0.1953125-0.5117188-0.1953125-0.7070313,0l-2,2c-0.1953125,0.1953125-0.1953125,0.5117188,0,0.7070313   s0.5117188,0.1953125,0.7070313,0L6.5,15.2070313l1.6464844,1.6464844C8.2402344,16.9472656,8.3671875,17,8.5,17h2   c0.0771484,0,0.1542969-0.0185547,0.2236328-0.0527344l1.7402344-0.8701172l2.7587891,1.8388672   C15.3076172,17.9726563,15.4042969,18,15.5,18c0.1611328,0,0.3193359-0.078125,0.4160156-0.2226563l1.5224609-2.2832031   l0.6142578,1.2294922C18.1376953,16.8925781,18.3105469,17,18.5,17h1c0.2763672,0,0.5-0.2236328,0.5-0.5S19.7763672,16,19.5,16z" fill="#303C42"/><path d="M14.2753906,9.9472656l4.0009766,2C18.3486328,11.9833984,18.4248047,12,18.5,12   c0.1826172,0,0.359375-0.1015625,0.4472656-0.2763672c0.1230469-0.2470703,0.0234375-0.5478516-0.2236328-0.6708984L15.6171875,9.5   l3.1064453-1.5527344c0.2470703-0.1230469,0.3466797-0.4238281,0.2236328-0.6708984   c-0.1240234-0.2470703-0.4228516-0.3466797-0.6708984-0.2236328l-4.0009766,2   C14.1064453,9.1376953,13.9990234,9.3105469,13.9990234,9.5S14.1064453,9.8623047,14.2753906,9.9472656z" fill="#303C42"/><path d="M5.0527344,11.7236328C5.140625,11.8984375,5.3173828,12,5.5,12   c0.0751953,0,0.1513672-0.0166016,0.2236328-0.0527344l4.0009766-2C9.8935547,9.8623047,10.0009766,9.6894531,10.0009766,9.5   S9.8935547,9.1376953,9.7246094,9.0527344l-4.0009766-2c-0.2460938-0.1220703-0.546875-0.0234375-0.6708984,0.2236328   C4.9296875,7.5234375,5.0292969,7.8242188,5.2763672,7.9472656L8.3828125,9.5l-3.1064453,1.5527344   C5.0292969,11.1757813,4.9296875,11.4765625,5.0527344,11.7236328z" fill="#303C42"/><linearGradient gradientUnits="userSpaceOnUse" id="SVGID_1_" x1="1.1247724" x2="22.875227" y1="6.9287982" y2="17.0712013"><stop offset="0" style="stop-color:#FFFFFF;stop-opacity:0.2"/><stop offset="1" style="stop-color:#FFFFFF;stop-opacity:0"/></linearGradient><path d="M12,0C5.3828125,0,0,5.3828125,0,12s5.3828125,12,12,12s12-5.3828125,12-12S18.6171875,0,12,0z" fill="url(#SVGID_1_)"/></g><g/><g/><g/><g/><g/><g/><g/><g/><g/><g/><g/><g/><g/><g/><g/></svg>